<svg
  width="25"
  height="25"
  viewBox="0 0 300 300"
  xmlns="http://www.w3.org/2000/svg"
>
  <path
    fill="#ccc"
    d="M108.369 301.7835C101.8095 301.7835 97.299 296.694 96.8055 296.1045L6.3555 186.801C3.9615 184.578 -2.2125 177.879 0.123 172.0215C1.503 168.543 5.121 166.7715 10.86 166.7715H57.489V12.444C57.258 10.989 57.075 7.6605 59.3895 4.665C61.773 1.5735 65.8515 0 71.505 0H143.1765C148.2495 0 151.1805 1.9215 152.7435 3.5325C155.6805 6.555 155.7285 10.2165 155.7075 10.914V163.5285H198.444C201.0795 163.5285 209.1165 163.5285 211.569 169.4715C214.1295 175.677 207.918 182.5275 205.959 184.476C203.2155 188.1855 129.1275 286.4685 118.3485 297.264C114.618 300.9945 110.865 301.7835 108.369 301.7835Z"
  />
</svg>
